<svg width="32" height="32" viewBox="0 0 32 32" fill="none" xmlns="http://www.w3.org/2000/svg">
<path fill-rule="evenodd" clip-rule="evenodd" d="M16.0013 26.667C21.8923 26.667 26.668 21.8914 26.668 16.0003C26.668 10.1093 21.8923 5.33366 16.0013 5.33366C10.1103 5.33366 5.33464 10.1093 5.33464 16.0003C5.33464 21.8914 10.1103 26.667 16.0013 26.667ZM16.0013 29.3337C23.3651 29.3337 29.3346 23.3641 29.3346 16.0003C29.3346 8.63653 23.3651 2.66699 16.0013 2.66699C8.63751 2.66699 2.66797 8.63653 2.66797 16.0003C2.66797 23.3641 8.63751 29.3337 16.0013 29.3337Z" fill="#23262F"/>
<path fill-rule="evenodd" clip-rule="evenodd" d="M18.3276 24.2358C19.3125 22.266 19.9987 19.358 19.9987 16.0003C19.9987 12.6426 19.3125 9.73468 18.3276 7.7648C17.2629 5.63543 16.2854 5.33366 15.9987 5.33366C15.712 5.33366 14.7345 5.63543 13.6698 7.7648C12.6849 9.73468 11.9987 12.6426 11.9987 16.0003C11.9987 19.358 12.6849 22.266 13.6698 24.2358C14.7345 26.3652 15.712 26.667 15.9987 26.667C16.2854 26.667 17.2629 26.3652 18.3276 24.2358ZM15.9987 29.3337C19.6806 29.3337 22.6654 23.3641 22.6654 16.0003C22.6654 8.63653 19.6806 2.66699 15.9987 2.66699C12.3168 2.66699 9.33203 8.63653 9.33203 16.0003C9.33203 23.3641 12.3168 29.3337 15.9987 29.3337Z" fill="#23262F"/>
<path fill-rule="evenodd" clip-rule="evenodd" d="M29.2688 17.3337C29.3123 16.8951 29.3346 16.4503 29.3346 16.0003C29.3346 15.5503 29.3123 15.1055 29.2688 14.667H2.7338C2.69026 15.1055 2.66797 15.5503 2.66797 16.0003C2.66797 16.4503 2.69026 16.8951 2.7338 17.3337H29.2688Z" fill="#23262F"/>
</svg>
