<svg width="48" height="48" viewBox="0 0 48 48" fill="none" xmlns="http://www.w3.org/2000/svg">
<path d="M16 40C16 38.8954 16.8954 38 18 38H30C31.1046 38 32 38.8954 32 40V42C32 45.3137 29.3137 48 26 48H22C18.6863 48 16 45.3137 16 42V40Z" fill="#FCFCFD"/>
<path d="M40 16C40 21.0528 37.6579 25.5585 34 28.4907V30C34 32.2091 32.2091 34 30 34H26V22.8284L29.4142 19.4142C30.1953 18.6332 30.1953 17.3668 29.4142 16.5858C28.6332 15.8047 27.3668 15.8047 26.5858 16.5858L24 19.1716L21.4142 16.5858C20.6332 15.8047 19.3668 15.8047 18.5858 16.5858C17.8047 17.3668 17.8047 18.6332 18.5858 19.4142L22 22.8284V34H18C15.7909 34 14 32.2091 14 30V28.4907C10.3421 25.5585 8 21.0528 8 16C8 7.16344 15.1634 0 24 0C32.8366 0 40 7.16344 40 16Z" fill="#FCFCFD"/>
</svg>
