<svg width="36" height="36" viewBox="0 0 36 36" fill="none" xmlns="http://www.w3.org/2000/svg">
<g clip-path="url(#clip0_11412_19957)">
<circle cx="18" cy="18" r="18" fill="#4AC63F"/>
<mask id="mask0_11412_19957" style="mask-type:alpha" maskUnits="userSpaceOnUse" x="0" y="0" width="36" height="36">
<circle cx="18" cy="18" r="18" fill="#4AC63F"/>
</mask>
<g mask="url(#mask0_11412_19957)">
<circle cx="29.8125" cy="7.3125" r="16.3125" fill="#F6C92D"/>
</g>
<path fill-rule="evenodd" clip-rule="evenodd" d="M19.1761 4.61293C18.4874 4.85855 18.0404 5.28232 17.7104 6.0022C17.4722 6.52207 17.4618 7.27019 17.685 7.84174C17.8957 8.3814 18.4342 8.9473 18.9708 9.19299C19.3325 9.35862 19.4705 9.38466 19.9886 9.38519C20.4989 9.38566 20.6446 9.35935 20.9688 9.2083C22.8867 8.31467 22.9274 5.62311 21.0368 4.71842C20.5284 4.4752 19.6947 4.42791 19.1761 4.61293ZM18.2237 10.2539C18.0589 10.3082 17.0998 10.7842 16.0925 11.3117C14.1933 12.3061 13.7585 12.6033 13.4658 13.107C13.283 13.4217 11.8965 17.8662 11.8971 18.1359C11.8978 18.4728 12.0383 18.8156 12.2708 19.0481L12.5047 19.282L12.2686 20.3554C12.1387 20.9458 12.021 21.4403 12.0069 21.4544C11.9929 21.4684 11.4154 21.3578 10.7236 21.2086C9.60645 20.9675 9.43236 20.9455 9.16616 21.0117C8.60936 21.15 8.34144 21.3684 8.12325 22.0094C8.0845 22.1233 8.04732 22.2504 8.01036 22.3928C8.01036 22.7298 7.10058 23.5663 7.10058 23.5663L7.73962 23.5927L6.29889 25.2859H7.32133L7.03087 25.8088L5.625 26.7731C5.625 26.7731 7.13123 26.5893 7.10058 26.7731C7.0337 27.1742 6.84621 28.1102 6.86275 28.2204C6.94813 28.7901 7.50497 29.3141 8.14273 29.4249C8.33906 29.4591 8.35798 29.4438 8.46407 29.166C8.59454 28.8243 9.06127 28.3804 9.41145 28.2649C9.81864 28.1305 10.4384 28.2118 10.8214 28.4499L11.1572 28.6587L11.263 28.1807C11.3212 27.9178 11.7666 25.8446 12.2529 23.5736C13.1192 19.5273 13.1402 19.444 13.2994 19.424C13.6392 19.3815 13.8786 19.2676 14.0923 19.0471C14.2887 18.8445 14.3896 18.5727 14.9883 16.6341L15.663 14.4494L16.0601 14.2377C16.2785 14.1212 16.4665 14.0353 16.4779 14.0467C16.4893 14.0581 16.3597 15.0375 16.1898 16.2231C15.8301 18.7343 15.8175 19.3225 16.11 19.9614C16.3798 20.5506 16.5222 20.6853 20.1698 23.8017C20.1962 23.8243 20.309 25.0859 20.4204 26.6052C20.5318 28.1246 20.6561 29.4939 20.6966 29.648C20.8579 30.2615 21.4952 30.7342 22.1575 30.7316C23.0224 30.7281 23.6845 30.0586 23.6852 29.1867C23.6858 28.3577 23.278 23.2803 23.1808 22.9076C23.0138 22.2668 22.7781 21.9825 21.4968 20.8763C20.2958 19.8395 20.0219 19.5224 20.0219 19.1685C20.0219 19.0635 20.2317 17.4943 20.4881 15.6815C20.7445 13.8687 20.9543 12.2742 20.9543 12.138C20.9543 11.5172 20.4601 10.7377 19.8337 10.3706C19.4655 10.1549 18.694 10.0989 18.2237 10.2539ZM21.2599 15.0465C21.1582 15.791 21.0703 16.4462 21.0646 16.5023C21.0548 16.5984 23.6349 18.6437 24.0202 18.8452C25.1081 19.4142 26.2889 18.2425 25.7328 17.1457C25.6074 16.8982 25.2903 16.6252 23.7848 15.4682C22.7958 14.7081 21.8647 13.9977 21.7157 13.8895L21.4449 13.6928L21.2599 15.0465ZM15.3372 22.7504C15.0149 23.7526 14.4386 25.543 14.0566 26.729C13.5403 28.3317 13.3623 28.973 13.3634 29.2265C13.3694 30.629 15.1298 31.268 16.0442 30.1997C16.2055 30.0113 16.3437 29.6945 16.5719 28.9901C17.7084 25.4823 18.4333 23.1958 18.4134 23.1816C18.1909 23.0233 16.04 21.1228 15.9912 21.0415C15.9381 20.9529 15.7956 21.3252 15.3372 22.7504ZM9.45248 28.9948C8.86713 29.3626 8.89917 30.3229 9.50722 30.6373C9.80632 30.792 10.3139 30.7374 10.54 30.5262C11.0149 30.0824 11.0143 29.5183 10.5383 29.0736C10.2966 28.8478 9.74958 28.8081 9.45248 28.9948Z" fill="#FCFCFD"/>
</g>
<defs>
<clipPath id="clip0_11412_19957">
<rect width="36" height="36" fill="white"/>
</clipPath>
</defs>
</svg>
