<svg width="136" height="24" viewBox="0 0 136 24" fill="none" xmlns="http://www.w3.org/2000/svg">
<path fill-rule="evenodd" clip-rule="evenodd" d="M16.0174 7.43115L14.4914 3.77638C13.5674 1.56346 10.4323 1.56348 9.50829 3.77638L7.98226 7.43115L4.02355 7.74729C1.62663 7.9387 0.656782 10.9318 2.48593 12.4926L5.49443 15.0597L4.57496 18.8994C4.01591 21.234 6.55334 23.0826 8.60413 21.8348L11.9998 19.7688L15.3955 21.8348C17.4463 23.0826 19.9837 21.2339 19.4247 18.8994L18.5052 15.0597L21.5137 12.4926C23.3429 10.9318 22.373 7.9387 19.9761 7.74729L16.0174 7.43115Z" fill="#F6C92D"/>
<path fill-rule="evenodd" clip-rule="evenodd" d="M44.0174 7.43115L42.4914 3.77638C41.5674 1.56346 38.4323 1.56348 37.5083 3.77638L35.9823 7.43115L32.0236 7.74729C29.6266 7.9387 28.6568 10.9318 30.4859 12.4926L33.4944 15.0597L32.575 18.8994C32.0159 21.234 34.5533 23.0826 36.6041 21.8348L39.9998 19.7688L43.3955 21.8348C45.4463 23.0826 47.9837 21.2339 47.4247 18.8994L46.5052 15.0597L49.5137 12.4926C51.3429 10.9318 50.373 7.9387 47.9761 7.74729L44.0174 7.43115Z" fill="#F6C92D"/>
<path fill-rule="evenodd" clip-rule="evenodd" d="M72.0174 7.43115L70.4914 3.77638C69.5674 1.56346 66.4323 1.56348 65.5083 3.77638L63.9823 7.43115L60.0236 7.74729C57.6266 7.9387 56.6568 10.9318 58.4859 12.4926L61.4944 15.0597L60.575 18.8994C60.0159 21.234 62.5533 23.0826 64.6041 21.8348L67.9998 19.7688L71.3955 21.8348C73.4463 23.0826 75.9837 21.2339 75.4247 18.8994L74.5052 15.0597L77.5137 12.4926C79.3429 10.9318 78.373 7.9387 75.9761 7.74729L72.0174 7.43115Z" fill="#F6C92D"/>
<path fill-rule="evenodd" clip-rule="evenodd" d="M100.017 7.43115L98.4914 3.77638C97.5674 1.56346 94.4323 1.56348 93.5083 3.77638L91.9823 7.43115L88.0236 7.74729C85.6266 7.9387 84.6568 10.9318 86.4859 12.4926L89.4944 15.0597L88.575 18.8994C88.0159 21.234 90.5533 23.0826 92.6041 21.8348L95.9998 19.7688L99.3955 21.8348C101.446 23.0826 103.984 21.2339 103.425 18.8994L102.505 15.0597L105.514 12.4926C107.343 10.9318 106.373 7.9387 103.976 7.74729L100.017 7.43115Z" fill="#F6C92D"/>
<path fill-rule="evenodd" clip-rule="evenodd" d="M128.017 7.43115L126.491 3.77638C125.567 1.56346 122.432 1.56348 121.508 3.77638L119.982 7.43115L116.024 7.74729C113.627 7.9387 112.657 10.9318 114.486 12.4926L117.494 15.0597L116.575 18.8994C116.016 21.234 118.553 23.0826 120.604 21.8348L124 19.7688L127.396 21.8348C129.446 23.0826 131.984 21.2339 131.425 18.8994L130.505 15.0597L133.514 12.4926C135.343 10.9318 134.373 7.9387 131.976 7.74729L128.017 7.43115Z" fill="#F6C92D"/>
</svg>
