<svg width="136" height="24" viewBox="0 0 136 24" fill="none" xmlns="http://www.w3.org/2000/svg">
<path fill-rule="evenodd" clip-rule="evenodd" d="M16.0174 7.43115L14.4914 3.77638C13.5674 1.56346 10.4323 1.56348 9.50829 3.77638L7.98226 7.43115L4.02355 7.74729C1.62663 7.9387 0.656782 10.9318 2.48593 12.4926L5.49443 15.0597L4.57496 18.8994C4.01591 21.234 6.55334 23.0826 8.60413 21.8348L11.9998 19.7688L15.3955 21.8348C17.4463 23.0826 19.9837 21.2339 19.4247 18.8994L18.5052 15.0597L21.5137 12.4926C23.3429 10.9318 22.373 7.9387 19.9761 7.74729L16.0174 7.43115Z" fill="#F6C92D"/>
<path fill-rule="evenodd" clip-rule="evenodd" d="M37.5223 8.93361C37.4212 9.17558 37.1934 9.3408 36.932 9.36167L32.1828 9.74094C31.5613 9.79057 31.3099 10.5666 31.7841 10.9712L35.3986 14.0554C35.5988 14.2262 35.6862 14.4949 35.6249 14.7509L34.52 19.3652C34.375 19.9704 35.0329 20.4497 35.5646 20.1262L39.636 17.649C39.8595 17.5131 40.1402 17.5131 40.3637 17.649L44.4351 20.1262C44.9668 20.4497 45.6246 19.9704 45.4797 19.3652L44.3747 14.7509C44.3134 14.4949 44.4009 14.2262 44.6011 14.0554L48.2155 10.9712C48.6897 10.5666 48.4383 9.79057 47.8169 9.74094L43.0676 9.36167C42.8062 9.3408 42.5784 9.17558 42.4774 8.93361L40.6458 4.54699C40.4062 3.97327 39.5934 3.97327 39.3539 4.54699L37.5223 8.93361ZM44.0174 7.43115L42.4914 3.77638C41.5674 1.56346 38.4323 1.56348 37.5083 3.77638L35.9823 7.43115L32.0236 7.74729C29.6266 7.9387 28.6568 10.9318 30.4859 12.4926L33.4944 15.0597L32.575 18.8994C32.0159 21.234 34.5533 23.0826 36.6041 21.8348L39.9998 19.7688L43.3955 21.8348C45.4463 23.0826 47.9837 21.2339 47.4247 18.8994L46.5052 15.0597L49.5137 12.4926C51.3429 10.9318 50.373 7.9387 47.9761 7.74729L44.0174 7.43115Z" fill="#B1B5C4"/>
<path fill-rule="evenodd" clip-rule="evenodd" d="M65.5223 8.93361C65.4212 9.17558 65.1934 9.3408 64.932 9.36167L60.1828 9.74094C59.5613 9.79057 59.3099 10.5666 59.7841 10.9712L63.3986 14.0554C63.5988 14.2262 63.6862 14.4949 63.6249 14.7509L62.52 19.3652C62.375 19.9704 63.0329 20.4497 63.5646 20.1262L67.636 17.649C67.8595 17.5131 68.1402 17.5131 68.3637 17.649L72.4351 20.1262C72.9668 20.4497 73.6246 19.9704 73.4797 19.3652L72.3747 14.7509C72.3134 14.4949 72.4009 14.2262 72.6011 14.0554L76.2155 10.9712C76.6897 10.5666 76.4383 9.79057 75.8169 9.74094L71.0676 9.36167C70.8062 9.3408 70.5784 9.17558 70.4774 8.93361L68.6458 4.54699C68.4062 3.97327 67.5934 3.97327 67.3539 4.54699L65.5223 8.93361ZM72.0174 7.43115L70.4914 3.77638C69.5674 1.56346 66.4323 1.56348 65.5083 3.77638L63.9823 7.43115L60.0236 7.74729C57.6266 7.9387 56.6568 10.9318 58.4859 12.4926L61.4944 15.0597L60.575 18.8994C60.0159 21.234 62.5533 23.0826 64.6041 21.8348L67.9998 19.7688L71.3955 21.8348C73.4463 23.0826 75.9837 21.2339 75.4247 18.8994L74.5052 15.0597L77.5137 12.4926C79.3429 10.9318 78.373 7.9387 75.9761 7.74729L72.0174 7.43115Z" fill="#B1B5C4"/>
<path fill-rule="evenodd" clip-rule="evenodd" d="M93.5223 8.93361C93.4212 9.17558 93.1934 9.3408 92.932 9.36167L88.1828 9.74094C87.5613 9.79057 87.3099 10.5666 87.7841 10.9712L91.3986 14.0554C91.5988 14.2262 91.6862 14.4949 91.6249 14.7509L90.52 19.3652C90.375 19.9704 91.0329 20.4497 91.5646 20.1262L95.636 17.649C95.8595 17.5131 96.1402 17.5131 96.3637 17.649L100.435 20.1262C100.967 20.4497 101.625 19.9704 101.48 19.3652L100.375 14.7509C100.313 14.4949 100.401 14.2262 100.601 14.0554L104.216 10.9712C104.69 10.5666 104.438 9.79057 103.817 9.74094L99.0676 9.36167C98.8062 9.3408 98.5784 9.17558 98.4774 8.93361L96.6458 4.54699C96.4062 3.97327 95.5934 3.97327 95.3539 4.54699L93.5223 8.93361ZM100.017 7.43115L98.4914 3.77638C97.5674 1.56346 94.4323 1.56348 93.5083 3.77638L91.9823 7.43115L88.0236 7.74729C85.6266 7.9387 84.6568 10.9318 86.4859 12.4926L89.4944 15.0597L88.575 18.8994C88.0159 21.234 90.5533 23.0826 92.6041 21.8348L95.9998 19.7688L99.3955 21.8348C101.446 23.0826 103.984 21.2339 103.425 18.8994L102.505 15.0597L105.514 12.4926C107.343 10.9318 106.373 7.9387 103.976 7.74729L100.017 7.43115Z" fill="#B1B5C4"/>
<path fill-rule="evenodd" clip-rule="evenodd" d="M121.522 8.93361C121.421 9.17558 121.193 9.3408 120.932 9.36167L116.183 9.74094C115.561 9.79057 115.31 10.5666 115.784 10.9712L119.399 14.0554C119.599 14.2262 119.686 14.4949 119.625 14.7509L118.52 19.3652C118.375 19.9704 119.033 20.4497 119.565 20.1262L123.636 17.649C123.859 17.5131 124.14 17.5131 124.364 17.649L128.435 20.1262C128.967 20.4497 129.625 19.9704 129.48 19.3652L128.375 14.7509C128.313 14.4949 128.401 14.2262 128.601 14.0554L132.216 10.9712C132.69 10.5666 132.438 9.79057 131.817 9.74094L127.068 9.36167C126.806 9.3408 126.578 9.17558 126.477 8.93361L124.646 4.54699C124.406 3.97327 123.593 3.97327 123.354 4.54699L121.522 8.93361ZM128.017 7.43115L126.491 3.77638C125.567 1.56346 122.432 1.56348 121.508 3.77638L119.982 7.43115L116.024 7.74729C113.627 7.9387 112.657 10.9318 114.486 12.4926L117.494 15.0597L116.575 18.8994C116.016 21.234 118.553 23.0826 120.604 21.8348L124 19.7688L127.396 21.8348C129.446 23.0826 131.984 21.2339 131.425 18.8994L130.505 15.0597L133.514 12.4926C135.343 10.9318 134.373 7.9387 131.976 7.74729L128.017 7.43115Z" fill="#B1B5C4"/>
</svg>
