<svg width="32" height="32" viewBox="0 0 32 32" fill="none" xmlns="http://www.w3.org/2000/svg">
<path fill-rule="evenodd" clip-rule="evenodd" d="M12.697 11.9115C12.5623 12.2341 12.2586 12.4544 11.91 12.4822L5.57767 12.9879C4.74911 13.0541 4.41385 14.0888 5.04615 14.6283L9.86538 18.7405C10.1323 18.9683 10.249 19.3265 10.1672 19.6678L8.69394 25.8202C8.50069 26.6272 9.37783 27.2663 10.0867 26.8349L15.5153 23.5321C15.8133 23.3508 16.1875 23.3508 16.4855 23.5321L21.9141 26.8349C22.623 27.2663 23.5001 26.6272 23.3069 25.8202L21.8336 19.6678C21.7519 19.3265 21.8685 18.9683 22.1354 18.7405L26.9547 14.6283C27.587 14.0888 27.2517 13.0541 26.4231 12.9879L20.0908 12.4822C19.7423 12.4544 19.4385 12.2341 19.3038 11.9115L16.8617 6.06265C16.5423 5.29769 15.4585 5.29769 15.1391 6.06265L12.697 11.9115ZM21.3572 9.9082L19.3225 5.03517C18.0905 2.08462 13.9103 2.08464 12.6784 5.03517L10.6437 9.9082L5.36539 10.3297C2.16949 10.5849 0.876361 14.5758 3.31522 16.6568L7.32655 20.0796L6.10059 25.1992C5.3552 28.3119 8.73844 30.7767 11.4728 29.1131L16.0004 26.3584L20.528 29.1131C23.2624 30.7768 26.6456 28.3119 25.9002 25.1992L24.6743 20.0796L28.6856 16.6568C31.1245 14.5758 29.8313 10.5849 26.6354 10.3297L21.3572 9.9082Z" fill="#23262F"/>
</svg>
