<svg width="32" height="32" viewBox="0 0 32 32" fill="none" xmlns="http://www.w3.org/2000/svg">
<path fill-rule="evenodd" clip-rule="evenodd" d="M22.1887 21.659C24.0564 19.0664 25.3333 16.2171 25.3333 13.333C25.3333 8.17835 21.1547 3.99967 16 3.99967C10.8453 3.99967 6.66667 8.17835 6.66667 13.333C6.66667 16.2171 7.94359 19.0664 9.81129 21.659C11.6649 24.2319 13.9442 26.3334 15.5692 27.6643C15.8357 27.8826 16.1643 27.8826 16.4308 27.6643C18.0558 26.3334 20.3351 24.2319 22.1887 21.659ZM18.1205 29.7273C21.5662 26.9052 28 20.6553 28 13.333C28 6.70559 22.6274 1.33301 16 1.33301C9.37258 1.33301 4 6.70559 4 13.333C4 20.6553 10.4338 26.9052 13.8795 29.7273C15.1287 30.7505 16.8713 30.7505 18.1205 29.7273Z" fill="#23262F"/>
<path fill-rule="evenodd" clip-rule="evenodd" d="M16.0013 10.6667C14.5285 10.6667 13.3346 11.8606 13.3346 13.3333C13.3346 14.8061 14.5285 16 16.0013 16C17.4741 16 18.668 14.8061 18.668 13.3333C18.668 11.8606 17.4741 10.6667 16.0013 10.6667ZM10.668 13.3333C10.668 10.3878 13.0558 8 16.0013 8C18.9468 8 21.3346 10.3878 21.3346 13.3333C21.3346 16.2789 18.9468 18.6667 16.0013 18.6667C13.0558 18.6667 10.668 16.2789 10.668 13.3333Z" fill="#23262F"/>
</svg>
