<svg width="32" height="32" viewBox="0 0 32 32" fill="none" xmlns="http://www.w3.org/2000/svg">
<path fill-rule="evenodd" clip-rule="evenodd" d="M16 17.3337C10.8453 17.3337 6.66667 21.5123 6.66667 26.667V29.3337C6.66667 30.07 6.06971 30.667 5.33333 30.667C4.59695 30.667 4 30.07 4 29.3337V26.667C4 20.0396 9.37258 14.667 16 14.667C22.6274 14.667 28 20.0396 28 26.667V29.3337C28 30.07 27.403 30.667 26.6667 30.667C25.9303 30.667 25.3333 30.07 25.3333 29.3337V26.667C25.3333 21.5123 21.1547 17.3337 16 17.3337Z" fill="#23262F"/>
<path fill-rule="evenodd" clip-rule="evenodd" d="M16 14.6663C18.9455 14.6663 21.3333 12.2785 21.3333 9.33301C21.3333 6.38749 18.9455 3.99967 16 3.99967C13.0545 3.99967 10.6667 6.38749 10.6667 9.33301C10.6667 12.2785 13.0545 14.6663 16 14.6663ZM16 17.333C20.4183 17.333 24 13.7513 24 9.33301C24 4.91473 20.4183 1.33301 16 1.33301C11.5817 1.33301 8 4.91473 8 9.33301C8 13.7513 11.5817 17.333 16 17.333Z" fill="#23262F"/>
</svg>
